<svg width="227" height="53" viewBox="0 0 227 53" fill="none" xmlns="http://www.w3.org/2000/svg">
    <path d="M3.56802 41.4399V11.3399H16.597C19.2917 11.3399 21.6137 11.7843 23.563 12.6729C25.5124 13.5329 27.0174 14.7799 28.078 16.4139C29.1387 18.0479 29.669 19.9973 29.669 22.2619C29.669 24.4979 29.1387 26.4329 28.078 28.0669C27.0174 29.6723 25.5124 30.9049 23.563 31.7649C21.6137 32.6249 19.2917 33.0549 16.597 33.0549H7.43802L10.534 30.0019V41.4399H3.56802ZM22.703 41.4399L15.178 30.5179H22.617L30.228 41.4399H22.703ZM10.534 30.7759L7.43802 27.5079H16.21C18.36 27.5079 19.9654 27.0493 21.026 26.1319C22.0867 25.1859 22.617 23.8959 22.617 22.2619C22.617 20.5993 22.0867 19.3093 21.026 18.3919C19.9654 17.4746 18.36 17.0159 16.21 17.0159H7.43802L10.534 13.7049V30.7759ZM41.5951 23.4659H56.0861V28.8839H41.5951V23.4659ZM42.1111 35.8499H58.4941V41.4399H35.1881V11.3399H57.9351V16.9299H42.1111V35.8499ZM64.0368 41.4399V11.3399H71.0028V41.4399H64.0368ZM90.3239 41.4399V11.3399H97.2899V35.7639H112.383V41.4399H90.3239ZM116.275 41.4399V11.3399H123.241V41.4399H116.275ZM136.619 41.4399V17.0159H126.987V11.3399H153.217V17.0159H143.585V41.4399H136.619ZM156.965 41.4399V11.3399H163.931V41.4399H156.965ZM185.48 41.9559C183.158 41.9559 180.994 41.5833 178.987 40.8379C177.009 40.0639 175.289 38.9746 173.827 37.5699C172.365 36.1653 171.218 34.5169 170.387 32.6249C169.584 30.7329 169.183 28.6546 169.183 26.3899C169.183 24.1253 169.584 22.0469 170.387 20.1549C171.218 18.2629 172.365 16.6146 173.827 15.2099C175.318 13.8053 177.052 12.7303 179.03 11.9849C181.008 11.2109 183.172 10.8239 185.523 10.8239C188.132 10.8239 190.482 11.2826 192.575 12.1999C194.696 13.0886 196.474 14.4073 197.907 16.1559L193.435 20.2839C192.403 19.1086 191.256 18.2343 189.995 17.6609C188.734 17.0589 187.358 16.7579 185.867 16.7579C184.462 16.7579 183.172 16.9873 181.997 17.4459C180.822 17.9046 179.804 18.5639 178.944 19.4239C178.084 20.2839 177.41 21.3016 176.923 22.4769C176.464 23.6523 176.235 24.9566 176.235 26.3899C176.235 27.8233 176.464 29.1276 176.923 30.3029C177.41 31.4783 178.084 32.4959 178.944 33.3559C179.804 34.2159 180.822 34.8753 181.997 35.3339C183.172 35.7926 184.462 36.0219 185.867 36.0219C187.358 36.0219 188.734 35.7353 189.995 35.1619C191.256 34.5599 192.403 33.6569 193.435 32.4529L197.907 36.5809C196.474 38.3296 194.696 39.6626 192.575 40.5799C190.482 41.4973 188.117 41.9559 185.48 41.9559ZM212.333 41.9559C209.925 41.9559 207.617 41.6406 205.41 41.0099C203.203 40.3506 201.425 39.5049 200.078 38.4729L202.443 33.2269C203.733 34.1443 205.252 34.9039 207.001 35.5059C208.778 36.0793 210.57 36.3659 212.376 36.3659C213.752 36.3659 214.856 36.2369 215.687 35.9789C216.547 35.6923 217.178 35.3053 217.579 34.8179C217.98 34.3306 218.181 33.7716 218.181 33.1409C218.181 32.3383 217.866 31.7076 217.235 31.2489C216.604 30.7616 215.773 30.3746 214.741 30.0879C213.709 29.7726 212.562 29.4859 211.301 29.2279C210.068 28.9413 208.821 28.5973 207.56 28.1959C206.327 27.7946 205.195 27.2786 204.163 26.6479C203.131 26.0173 202.285 25.1859 201.626 24.1539C200.995 23.1219 200.68 21.8033 200.68 20.1979C200.68 18.4779 201.139 16.9156 202.056 15.5109C203.002 14.0776 204.407 12.9453 206.27 12.1139C208.162 11.2539 210.527 10.8239 213.365 10.8239C215.257 10.8239 217.12 11.0533 218.955 11.5119C220.79 11.9419 222.409 12.6013 223.814 13.4899L221.664 18.7789C220.259 17.9763 218.855 17.3886 217.45 17.0159C216.045 16.6146 214.669 16.4139 213.322 16.4139C211.975 16.4139 210.871 16.5716 210.011 16.8869C209.151 17.2023 208.535 17.6179 208.162 18.1339C207.789 18.6213 207.603 19.1946 207.603 19.8539C207.603 20.6279 207.918 21.2586 208.549 21.7459C209.18 22.2046 210.011 22.5773 211.043 22.8639C212.075 23.1506 213.207 23.4373 214.44 23.7239C215.701 24.0106 216.948 24.3403 218.181 24.7129C219.442 25.0856 220.589 25.5873 221.621 26.2179C222.653 26.8486 223.484 27.6799 224.115 28.7119C224.774 29.7439 225.104 31.0483 225.104 32.6249C225.104 34.3163 224.631 35.8643 223.685 37.2689C222.739 38.6736 221.32 39.8059 219.428 40.6659C217.565 41.5259 215.2 41.9559 212.333 41.9559Z" fill="#1B1A1A"/>
    <path d="M59.4199 9.38086L65.0089 3.79187C65.1854 3.61484 65.3951 3.47438 65.626 3.37854C65.8569 3.2827 66.1044 3.2334 66.3544 3.2334C66.6044 3.2334 66.8519 3.2827 67.0828 3.37854C67.3137 3.47438 67.5234 3.61484 67.6999 3.79187L73.2899 9.38086" fill="#EF561E"/>
    </svg>
    