<?xml version="1.0" standalone="no"?>
<svg xmlns:xlink="http://www.w3.org/1999/xlink" id="wave" style="transform:rotate(180deg); transition: 0.3s" viewBox="0 0 1440 490" version="1.1" xmlns="http://www.w3.org/2000/svg"><defs><linearGradient id="sw-gradient-0" x1="0" x2="0" y1="1" y2="0"><stop stop-color="rgba(243, 106, 62, 1)" offset="0%"/><stop stop-color="rgba(239, 105, 33, 1)" offset="100%"/></linearGradient></defs><path style="transform:translate(0, 0px); opacity:1" fill="url(#sw-gradient-0)" d="M0,245L60,212.3C120,180,240,114,360,106.2C480,98,600,147,720,163.3C840,180,960,163,1080,130.7C1200,98,1320,49,1440,57.2C1560,65,1680,131,1800,196C1920,261,2040,327,2160,326.7C2280,327,2400,261,2520,212.3C2640,163,2760,131,2880,147C3000,163,3120,229,3240,285.8C3360,343,3480,392,3600,359.3C3720,327,3840,212,3960,138.8C4080,65,4200,33,4320,81.7C4440,131,4560,261,4680,302.2C4800,343,4920,294,5040,269.5C5160,245,5280,245,5400,277.7C5520,310,5640,376,5760,383.8C5880,392,6000,343,6120,277.7C6240,212,6360,131,6480,147C6600,163,6720,278,6840,294C6960,310,7080,229,7200,220.5C7320,212,7440,278,7560,318.5C7680,359,7800,376,7920,326.7C8040,278,8160,163,8280,155.2C8400,147,8520,245,8580,294L8640,343L8640,490L8580,490C8520,490,8400,490,8280,490C8160,490,8040,490,7920,490C7800,490,7680,490,7560,490C7440,490,7320,490,7200,490C7080,490,6960,490,6840,490C6720,490,6600,490,6480,490C6360,490,6240,490,6120,490C6000,490,5880,490,5760,490C5640,490,5520,490,5400,490C5280,490,5160,490,5040,490C4920,490,4800,490,4680,490C4560,490,4440,490,4320,490C4200,490,4080,490,3960,490C3840,490,3720,490,3600,490C3480,490,3360,490,3240,490C3120,490,3000,490,2880,490C2760,490,2640,490,2520,490C2400,490,2280,490,2160,490C2040,490,1920,490,1800,490C1680,490,1560,490,1440,490C1320,490,1200,490,1080,490C960,490,840,490,720,490C600,490,480,490,360,490C240,490,120,490,60,490L0,490Z"/></svg>